# xmcd
#
# Track frame offsets: 
#        150
#        22107
#        46573
#        74398
#        95513
#        125897
#        162802
#        192281
#        222410
#        256682
#        283096
#
# Disc length: 4013 seconds
#
# Revision: 0
# Processed by: cddbd v1.5.2PL0 Copyright (c) Steve Scherf et al.
# Submitted via: ExactAudioCopy v0.90b4
#
DISCID=9f0fab0b
DTITLE=Blues Alliance - Two Things For Sure
DYEAR=2004
DGENRE=Blues
TTITLE0=2 AM
TTITLE1=Lord Fill The Hole
TTITLE2=Tacoma Rain
TTITLE3=Two Things For Sure
TTITLE4=I don't Wanna Lose You
TTITLE5=Isn't That So
TTITLE6=Say It's Not So
TTITLE7=Little Wing
TTITLE8=Shamalama
TTITLE9=Needs A Fool
TTITLE10=Lover Lover
EXTD=
EXTT0=
EXTT1=
EXTT2=
EXTT3=
EXTT4=
EXTT5=
EXTT6=
EXTT7=
EXTT8=
EXTT9=
EXTT10=
PLAYORDER=
